<svg width="1074" height="1096" xmlns="http://www.w3.org/2000/svg" xmlns:xlink="http://www.w3.org/1999/xlink" xml:space="preserve" overflow="hidden"><defs><clipPath id="clip0"><rect x="2447" y="428" width="1074" height="1096"/></clipPath><clipPath id="clip1"><path d="M2602.49 589 3361.62 589 3396.16 627.822 3409 645.357 3409 1307.69 3396.16 1325.23C3374.29 1352.3 3349.92 1377.2 3323.42 1399.54L3309.72 1410 2654.39 1410 2640.7 1399.54C2547.93 1321.34 2481.33 1211.91 2456.31 1087.01L2455 1078.26 2455 874.793 2456.31 866.044C2474.18 776.829 2513.27 695.508 2567.95 627.822Z" fill-rule="evenodd" clip-rule="evenodd"/></clipPath></defs><g clip-path="url(#clip0)" transform="translate(-2447 -428)"><path d="M2447 976C2447 673.348 2687.42 428 2984 428 3280.58 428 3521 673.348 3521 976 3521 1278.65 3280.58 1524 2984 1524 2687.42 1524 2447 1278.65 2447 976Z" fill="#09348B" fill-rule="evenodd"/><g clip-path="url(#clip1)"><g><g><g><path d="M2828.78 955.039C2828.78 940.705 2840.4 929.086 2854.73 929.086L2958.54 929.086C2972.88 929.086 2984.49 940.705 2984.49 955.039L2984.49 1058.85C2984.49 1073.18 2972.88 1084.8 2958.54 1084.8L2854.73 1084.8C2840.4 1084.8 2828.78 1073.18 2828.78 1058.85Z" fill="#FFFFFF" fill-rule="evenodd" transform="matrix(1 0 0 1.00111 -94.5361 -37.6624)"/><path d="M2685.53 1129.09C2685.53 1118.96 2693.74 1110.75 2703.87 1110.75L2777.22 1110.75C2787.35 1110.75 2795.56 1118.96 2795.56 1129.09L2795.56 1202.44C2795.56 1212.58 2787.35 1220.79 2777.22 1220.79L2703.87 1220.79C2693.74 1220.79 2685.53 1212.58 2685.53 1202.44Z" fill="#FFFFFF" fill-rule="evenodd" transform="matrix(1 0 0 1.00111 -94.5361 -37.6624)"/><path d="M2843.31 1284.48C2843.31 1271.66 2853.71 1261.27 2866.53 1261.27L3004.88 1261.27C3017.7 1261.27 3028.09 1271.66 3028.09 1284.48L3028.09 1422.84C3028.09 1435.66 3017.7 1446.05 3004.88 1446.05L2866.53 1446.05C2853.71 1446.05 2843.31 1435.66 2843.31 1422.84Z" fill="#FFFFFF" fill-rule="evenodd" transform="matrix(1 0 0 1.00111 -94.5361 -37.6624)"/><path d="M2778.44 1116.55 2829.27 1056.62 2843 1068.27 2792.19 1128.2Z" stroke="#FFFFFF" stroke-width="7.13683" stroke-miterlimit="8" fill="#FFFFFF" fill-rule="evenodd" transform="matrix(1 0 0 1.00111 -94.5361 -37.6624)"/><path d="M2788.44 1198.24 2881.42 1298.58 2868.85 1310.22 2775.87 1209.88Z" stroke="#FFFFFF" stroke-width="7.13683" stroke-miterlimit="8" fill="#FFFFFF" fill-rule="evenodd" transform="matrix(1 0 0 1.00111 -94.5361 -37.6624)"/><path d="M2945.16 1262.09 3081.16 1262.09 3081.16 1298.43 2945.16 1298.43Z" fill="#FFFFFF" fill-rule="evenodd" transform="matrix(1 0 0 1.00111 -94.5361 -37.6624)"/><path d="M2549.65 808.449 3114.37 808.449 3114.37 845.821 2549.65 845.821Z" fill="#FFFFFF" fill-rule="evenodd" transform="matrix(1 0 0 1.00111 -94.5361 -37.6624)"/><path d="M204.463 0.0734156C102.365 0.0734156 0.266001 112.965 0.266001 225.857 0.266001 338.749 119.127 451.641 237.988 451.641" stroke="#FFFFFF" stroke-width="37.8492" stroke-miterlimit="8" fill="none" fill-rule="evenodd" transform="matrix(-1 1.22601e-16 1.22465e-16 1.00111 3223.18 790.613)"/><path d="M2946.2 1330.6 3082.2 1330.6 3082.2 1369.01 2946.2 1369.01Z" fill="#FFFFFF" fill-rule="evenodd" transform="matrix(1 0 0 1.00111 -94.5361 -37.6624)"/><path d="M2549.65 712.94 3114.37 712.94 3114.37 750.31 2549.65 750.31Z" fill="#FFFFFF" fill-rule="evenodd" transform="matrix(1 0 0 1.00111 -94.5361 -37.6624)"/><path d="M286.424 0.0384456C143.361 0.0384456 0.295863 154.713 0.295863 309.388 0.295863 464.062 160.161 618.737 320.026 618.737" stroke="#FFFFFF" stroke-width="37.8492" stroke-miterlimit="8" fill="none" fill-rule="evenodd" transform="matrix(-1 1.22601e-16 1.22465e-16 1.00111 3305.19 693.963)"/><path d="M2945.16 1407.41 3081.16 1407.41 3081.16 1445.82 2945.16 1445.82Z" fill="#FFFFFF" fill-rule="evenodd" transform="matrix(1 0 0 1.00111 -94.5361 -37.6624)"/><path d="M2549.65 626.784 3114.37 626.784 3114.37 663.117 2549.65 663.117Z" fill="#FFFFFF" fill-rule="evenodd" transform="matrix(1 0 0 1.00111 -94.5361 -37.6624)"/><path d="M371.613 0.00709285C185.97 0.00709285 0.326656 195.427 0.326656 390.845 0.326656 586.265 202.754 781.685 405.18 781.685" stroke="#FFFFFF" stroke-width="37.8492" stroke-miterlimit="8" fill="none" fill-rule="evenodd" transform="matrix(-1 1.22601e-16 1.22465e-16 1.00111 3390.31 607.706)"/></g></g></g></g></g></svg>