<svg xmlns="http://www.w3.org/2000/svg" version="1.1" xmlns:xlink="http://www.w3.org/1999/xlink" width="512" height="512" x="0" y="0" viewBox="0 0 510 510" style="enable-background:new 0 0 512 512" xml:space="preserve" class=""><g><linearGradient id="a"><stop offset="0" stop-color="#f9f5f3"></stop><stop offset="1" stop-color="#d8e8f0"></stop></linearGradient><linearGradient xlink:href="#a" id="g" x1="255" x2="255" y1="0" y2="375.802" gradientUnits="userSpaceOnUse"></linearGradient><linearGradient id="b"><stop offset="0" stop-color="#678d98" stop-opacity="0"></stop><stop offset=".996" stop-color="#678d98" stop-opacity=".996"></stop><stop offset="1" stop-color="#678d98"></stop></linearGradient><linearGradient xlink:href="#b" id="h" x1="329.886" x2="131.788" y1="173.433" y2="212.66" gradientUnits="userSpaceOnUse"></linearGradient><linearGradient xlink:href="#b" id="i" x1="243.213" x2="265.278" y1="51.628" y2="187.698" gradientUnits="userSpaceOnUse"></linearGradient><linearGradient id="c"><stop offset="0" stop-color="#fff" stop-opacity="0"></stop><stop offset="1" stop-color="#fff"></stop></linearGradient><linearGradient xlink:href="#c" id="j" x1="253.574" x2="48.612" y1="246.476" y2="260.205" gradientUnits="userSpaceOnUse"></linearGradient><linearGradient xlink:href="#c" id="k" x1="263.931" x2="413.976" y1="211.2" y2="125.881" gradientUnits="userSpaceOnUse"></linearGradient><linearGradient xlink:href="#b" id="l" x1="241.132" x2="267.27" y1="18.067" y2="199.099" gradientUnits="userSpaceOnUse"></linearGradient><linearGradient xlink:href="#c" id="m" x1="267.914" x2="185.537" y1="140.133" y2="46.968" gradientUnits="userSpaceOnUse"></linearGradient><linearGradient xlink:href="#b" id="n" x1="255" x2="255" y1="307" y2="375.589" gradientUnits="userSpaceOnUse"></linearGradient><linearGradient xlink:href="#a" id="o" x1="251.999" x2="256.791" y1="369.19" y2="422.871" gradientUnits="userSpaceOnUse"></linearGradient><linearGradient xlink:href="#b" id="p" x1="255" x2="255" y1="372.805" y2="395.969" gradientUnits="userSpaceOnUse"></linearGradient><linearGradient id="d"><stop offset="0" stop-color="#5a5a5a"></stop><stop offset="1" stop-color="#444"></stop></linearGradient><linearGradient xlink:href="#d" id="q" x1="239.396" x2="259.396" y1="408.048" y2="474.714" gradientUnits="userSpaceOnUse"></linearGradient><linearGradient id="r" x1="244.529" x2="257.855" y1="415.34" y2="459.761" gradientUnits="userSpaceOnUse"><stop offset="0" stop-color="#fef0ae"></stop><stop offset="1" stop-color="#fbc56d"></stop></linearGradient><linearGradient id="e"><stop offset="0" stop-color="#433f43" stop-opacity="0"></stop><stop offset="1" stop-color="#1a1a1a"></stop></linearGradient><linearGradient xlink:href="#e" id="s" x1="255" x2="255" y1="464.763" y2="504.615" gradientUnits="userSpaceOnUse"></linearGradient><linearGradient xlink:href="#e" id="t" x1="255" x2="255" y1="504" y2="488.967" gradientUnits="userSpaceOnUse"></linearGradient><linearGradient xlink:href="#d" id="u" x1="255" x2="255" y1="471.5" y2="484.586" gradientUnits="userSpaceOnUse"></linearGradient><linearGradient id="f"><stop offset="0" stop-color="#fbc56d"></stop><stop offset="1" stop-color="#c5715a"></stop></linearGradient><linearGradient xlink:href="#f" id="v" x1="194.07" x2="215.07" y1="435.544" y2="516.544" gradientUnits="userSpaceOnUse"></linearGradient><linearGradient xlink:href="#f" id="w" x1="267.046" x2="288.046" y1="416.624" y2="497.624" gradientUnits="userSpaceOnUse"></linearGradient><path fill="url(#g)" d="M352.321 0H157.679a36.87 36.87 0 0 0-27.962 12.839L53.02 102.086c-11.653 13.56-11.897 33.527-.58 47.368l174.018 212.817c14.752 18.041 42.331 18.041 57.083 0L457.56 149.454c11.318-13.841 11.073-33.808-.58-47.368l-76.697-89.248A36.87 36.87 0 0 0 352.321 0z" opacity="1" data-original="url(#g)"></path><path fill="url(#h)" d="m456.98 102.086-76.697-89.248A36.873 36.873 0 0 0 352.321 0H255v375.802c10.583 0 21.166-4.51 28.541-13.53L457.56 149.454c11.318-13.841 11.073-33.808-.58-47.368z" opacity="1" data-original="url(#h)"></path><path fill="url(#i)" d="m129.719 12.837-76.699 89.25a36.793 36.793 0 0 0-8.896 23.44h421.753a36.793 36.793 0 0 0-8.896-23.44l-76.699-89.25A36.87 36.87 0 0 0 352.321 0H157.679a36.866 36.866 0 0 0-27.96 12.837z" opacity="1" data-original="url(#i)"></path><path fill="url(#j)" d="m126.04 125.527 118.025 248.616a37.137 37.137 0 0 0 21.869 0L383.96 125.527z" opacity="1" data-original="url(#j)"></path><path fill="url(#k)" d="m126.04 125.527 118.025 248.616a37.137 37.137 0 0 0 21.869 0L383.96 125.527z" opacity="1" data-original="url(#k)"></path><path fill="url(#l)" d="M126.04 125.527h257.92L369.765 4.396A36.85 36.85 0 0 0 352.321 0H157.679a36.842 36.842 0 0 0-17.443 4.396z" opacity="1" data-original="url(#l)"></path><path fill="url(#m)" d="M383.96 125.527H126.04L255 0z" opacity="1" data-original="url(#m)"></path><path fill="url(#n)" d="m120.755 233 105.704 129.271c14.751 18.041 42.332 18.041 57.083 0L389.245 233z" opacity="1" data-original="url(#n)"></path><path fill="url(#o)" d="M323.766 428.275H186.234v-50.084c0-10.41 8.439-18.849 18.849-18.849h99.833c10.41 0 18.849 8.439 18.849 18.849v50.084z" opacity="1" data-original="url(#o)"></path><path fill="url(#p)" d="M323.766 428.275H186.234v-50.084c0-10.41 8.439-18.849 18.849-18.849h99.833c10.41 0 18.849 8.439 18.849 18.849v50.084z" opacity="1" data-original="url(#p)"></path><path fill="url(#q)" d="M389.635 510h-269.27c-11.302 0-20.465-9.162-20.465-20.465V434.15c0-24.64 19.975-44.615 44.615-44.615h220.969c24.64 0 44.615 19.975 44.615 44.615v55.385C410.1 500.838 400.937 510 389.635 510z" opacity="1" data-original="url(#q)"></path><path fill="url(#r)" d="M368.667 476.667H141.333v-50.333c0-9.389 7.611-17 17-17h193.333c9.389 0 17 7.611 17 17v50.333z" opacity="1" data-original="url(#r)"></path><path fill="url(#s)" d="M99.9 436.758v52.777c0 11.302 9.162 20.465 20.465 20.465h269.27c11.302 0 20.465-9.162 20.465-20.465v-52.777z" opacity="1" data-original="url(#s)"></path><path fill="url(#t)" d="M99.9 478v11.535c0 11.302 9.162 20.465 20.464 20.465h269.271c11.302 0 20.464-9.162 20.464-20.465V478z" opacity="1" data-original="url(#t)"></path><path fill="url(#u)" d="M410.1 486.258H99.9a7.5 7.5 0 0 1 0-15h310.2a7.5 7.5 0 0 1 0 15z" opacity="1" data-original="url(#u)"></path><path fill="url(#v)" d="M200.616 434.86h-9.226a8.14 8.14 0 0 0 0 16.28h9.226a8.14 8.14 0 0 0 0-16.28z" opacity="1" data-original="url(#v)"></path><path fill="url(#w)" d="M318.61 434.86h-89.45a8.14 8.14 0 0 0 0 16.28h89.45a8.14 8.14 0 0 0 0-16.28z" opacity="1" data-original="url(#w)"></path></g></svg>