<svg xmlns="http://www.w3.org/2000/svg" version="1.1" xmlns:xlink="http://www.w3.org/1999/xlink" width="512" height="512" x="0" y="0" viewBox="0 0 510 510" style="enable-background:new 0 0 512 512" xml:space="preserve" class=""><g><linearGradient id="a"><stop offset="0" stop-color="#fef0ae"></stop><stop offset="1" stop-color="#fbc56d"></stop></linearGradient><linearGradient xlink:href="#a" id="e" x1="84.554" x2="409.953" y1="84.554" y2="409.953" gradientUnits="userSpaceOnUse"></linearGradient><linearGradient xlink:href="#a" id="f" x1="391.556" x2="114.458" y1="391.556" y2="114.458" gradientUnits="userSpaceOnUse"></linearGradient><linearGradient xlink:href="#a" id="g" x1="119.418" x2="342.592" y1="119.418" y2="342.592" gradientUnits="userSpaceOnUse"></linearGradient><linearGradient id="b"><stop offset="0" stop-color="#dc8758" stop-opacity="0"></stop><stop offset=".996" stop-color="#dc8758" stop-opacity=".996"></stop><stop offset="1" stop-color="#dc8758"></stop></linearGradient><linearGradient xlink:href="#b" id="h" x1="255" x2="255" y1="355.765" y2="491.359" gradientUnits="userSpaceOnUse"></linearGradient><linearGradient xlink:href="#b" id="i" x1="276.822" x2="90.822" y1="281.276" y2="161.276" gradientUnits="userSpaceOnUse"></linearGradient><linearGradient xlink:href="#b" id="j" x1="408.967" x2="245.475" y1="360.198" y2="217.705" gradientUnits="userSpaceOnUse"></linearGradient><linearGradient xlink:href="#a" id="k" x1="286.243" x2="233.9" y1="159.09" y2="106.748" gradientUnits="userSpaceOnUse"></linearGradient><linearGradient xlink:href="#b" id="l" x1="330.826" x2="209.492" y1="291.089" y2="263.089" gradientUnits="userSpaceOnUse"></linearGradient><linearGradient id="c"><stop offset="0" stop-color="#fbc56d"></stop><stop offset="1" stop-color="#c5715a"></stop></linearGradient><linearGradient xlink:href="#c" id="m" x1="234.983" x2="266.983" y1="217.245" y2="230.578" gradientUnits="userSpaceOnUse"></linearGradient><linearGradient xlink:href="#c" id="n" x1="177.808" x2="227.808" y1="322.484" y2="497.484" gradientUnits="userSpaceOnUse"></linearGradient><linearGradient xlink:href="#c" id="o" x1="283.49" x2="333.49" y1="292.289" y2="467.289" gradientUnits="userSpaceOnUse"></linearGradient><linearGradient xlink:href="#c" id="p" x1="230.58" x2="280.58" y1="307.406" y2="482.406" gradientUnits="userSpaceOnUse"></linearGradient><linearGradient xlink:href="#c" id="q" x1="-4866.851" x2="-4835.334" y1="462.436" y2="485.89" gradientTransform="matrix(.85 -.527 .417 .673 4269.312 -2724.543)" gradientUnits="userSpaceOnUse"></linearGradient><linearGradient id="d"><stop offset="0" stop-color="#8c3d27" stop-opacity="0"></stop><stop offset="1" stop-color="#8c3d27"></stop></linearGradient><linearGradient xlink:href="#d" id="r" x1="-4847.127" x2="-4868.634" y1="467.602" y2="480.267" gradientTransform="matrix(.85 -.527 .417 .673 4269.312 -2724.543)" gradientUnits="userSpaceOnUse"></linearGradient><linearGradient xlink:href="#c" id="s" x1="-3546.985" x2="-3500.843" y1="6283.835" y2="6318.174" gradientTransform="matrix(.948 .319 -.172 .51 4801.692 -1918.058)" gradientUnits="userSpaceOnUse"></linearGradient><linearGradient xlink:href="#d" id="t" x1="372.29" x2="362.631" y1="169.057" y2="181.656" gradientUnits="userSpaceOnUse"></linearGradient><linearGradient xlink:href="#d" id="u" x1="-3518.675" x2="-3550.508" y1="6291.444" y2="6310.19" gradientTransform="matrix(.948 .319 -.172 .51 4801.692 -1918.058)" gradientUnits="userSpaceOnUse"></linearGradient><linearGradient xlink:href="#c" id="v" x1="2749.863" x2="2796.006" y1="-6865.036" y2="-6830.698" gradientTransform="matrix(-.208 .978 .526 .112 4514.1 -1754.051)" gradientUnits="userSpaceOnUse"></linearGradient><linearGradient xlink:href="#d" id="w" x1="2778.174" x2="2746.341" y1="-6857.428" y2="-6838.682" gradientTransform="matrix(-.208 .978 .526 .112 4514.1 -1754.051)" gradientUnits="userSpaceOnUse"></linearGradient><linearGradient xlink:href="#c" id="x" x1="-2580.908" x2="-2527.94" y1="5799.36" y2="5838.778" gradientTransform="matrix(.85 .527 -.283 .457 4218.043 -1097.648)" gradientUnits="userSpaceOnUse"></linearGradient><linearGradient xlink:href="#d" id="y" x1="393.549" x2="376.75" y1="212.192" y2="227.311" gradientUnits="userSpaceOnUse"></linearGradient><linearGradient xlink:href="#d" id="z" x1="-2548.409" x2="-2584.951" y1="5808.094" y2="5829.613" gradientTransform="matrix(.85 .527 -.283 .457 4218.043 -1097.648)" gradientUnits="userSpaceOnUse"></linearGradient><linearGradient xlink:href="#c" id="A" x1="2606.166" x2="2659.135" y1="-5032.117" y2="-4992.699" gradientTransform="matrix(-.425 .905 .487 .229 3900.647 -1003.475)" gradientUnits="userSpaceOnUse"></linearGradient><linearGradient xlink:href="#d" id="B" x1="2638.665" x2="2602.123" y1="-5023.383" y2="-5001.864" gradientTransform="matrix(-.425 .905 .487 .229 3900.647 -1003.475)" gradientUnits="userSpaceOnUse"></linearGradient><linearGradient xlink:href="#c" id="C" x1="-1540.495" x2="-1477.593" y1="4687.157" y2="4733.968" gradientTransform="matrix(.669 .744 -.4 .36 3291.296 -298.014)" gradientUnits="userSpaceOnUse"></linearGradient><linearGradient xlink:href="#d" id="D" x1="392.53" x2="371.111" y1="267.351" y2="271.131" gradientUnits="userSpaceOnUse"></linearGradient><linearGradient xlink:href="#d" id="E" x1="-1501.902" x2="-1545.297" y1="4697.529" y2="4723.084" gradientTransform="matrix(.669 .744 -.4 .36 3291.296 -298.014)" gradientUnits="userSpaceOnUse"></linearGradient><linearGradient xlink:href="#c" id="F" x1="2137.228" x2="2200.131" y1="-2992.544" y2="-2945.733" gradientTransform="matrix(-.661 .75 .404 .356 2960.229 -296.408)" gradientUnits="userSpaceOnUse"></linearGradient><linearGradient xlink:href="#d" id="G" x1="2175.822" x2="2132.427" y1="-2982.172" y2="-2956.617" gradientTransform="matrix(-.661 .75 .404 .356 2960.229 -296.408)" gradientUnits="userSpaceOnUse"></linearGradient><linearGradient xlink:href="#c" id="H" x1="1408.538" x2="1471.44" y1="-1371.193" y2="-1324.382" gradientTransform="matrix(-.84 .543 .292 .452 1903.652 133.964)" gradientUnits="userSpaceOnUse"></linearGradient><linearGradient xlink:href="#d" id="I" x1="1447.131" x2="1403.736" y1="-1360.821" y2="-1335.266" gradientTransform="matrix(-.84 .543 .292 .452 1903.652 133.964)" gradientUnits="userSpaceOnUse"></linearGradient><linearGradient xlink:href="#c" id="J" x1="-365.74" x2="-295.159" y1="1905.177" y2="1957.702" gradientTransform="matrix(.27 .963 -.518 .145 1462.707 370.848)" gradientUnits="userSpaceOnUse"></linearGradient><linearGradient xlink:href="#d" id="K" x1="369.623" x2="344.425" y1="324.587" y2="324.587" gradientUnits="userSpaceOnUse"></linearGradient><linearGradient xlink:href="#d" id="L" x1="-322.436" x2="-371.128" y1="1916.815" y2="1945.49" gradientTransform="matrix(.27 .963 -.518 .145 1462.707 370.848)" gradientUnits="userSpaceOnUse"></linearGradient><linearGradient xlink:href="#c" id="M" x1="276.838" x2="355.259" y1="240.599" y2="319.02" gradientUnits="userSpaceOnUse"></linearGradient><linearGradient xlink:href="#d" id="N" x1="287.767" x2="265.767" y1="351.411" y2="376.411" gradientUnits="userSpaceOnUse"></linearGradient><linearGradient xlink:href="#c" id="O" x1="-4168.32" x2="-4136.803" y1="1009.296" y2="1032.751" gradientTransform="matrix(-.85 -.527 -.417 .673 -2937.608 -2724.543)" gradientUnits="userSpaceOnUse"></linearGradient><linearGradient xlink:href="#d" id="P" x1="-4148.596" x2="-4170.104" y1="1014.462" y2="1027.127" gradientTransform="matrix(-.85 -.527 -.417 .673 -2937.608 -2724.543)" gradientUnits="userSpaceOnUse"></linearGradient><linearGradient xlink:href="#c" id="Q" x1="-2768.321" x2="-2722.178" y1="5795.918" y2="5830.257" gradientTransform="matrix(-.948 .319 .172 .51 -3469.988 -1918.058)" gradientUnits="userSpaceOnUse"></linearGradient><linearGradient xlink:href="#d" id="R" x1="1193.995" x2="1184.335" y1="169.057" y2="181.656" gradientTransform="matrix(-1 0 0 1 1331.704 0)" gradientUnits="userSpaceOnUse"></linearGradient><linearGradient xlink:href="#d" id="S" x1="-2740.011" x2="-2771.843" y1="5803.527" y2="5822.273" gradientTransform="matrix(-.948 .319 .172 .51 -3469.988 -1918.058)" gradientUnits="userSpaceOnUse"></linearGradient><linearGradient xlink:href="#c" id="T" x1="2579.252" x2="2625.394" y1="-5370.707" y2="-5336.369" gradientTransform="matrix(.208 .978 -.526 .112 -3182.395 -1754.051)" gradientUnits="userSpaceOnUse"></linearGradient><linearGradient xlink:href="#d" id="U" x1="2607.562" x2="2575.729" y1="-5363.099" y2="-5344.353" gradientTransform="matrix(.208 .978 -.526 .112 -3182.395 -1754.051)" gradientUnits="userSpaceOnUse"></linearGradient><linearGradient xlink:href="#c" id="V" x1="-1882.514" x2="-1829.546" y1="4994.471" y2="5033.889" gradientTransform="matrix(-.85 .527 .283 .457 -2886.338 -1097.648)" gradientUnits="userSpaceOnUse"></linearGradient><linearGradient xlink:href="#d" id="W" x1="1215.253" x2="1198.454" y1="212.192" y2="227.311" gradientTransform="matrix(-1 0 0 1 1331.704 0)" gradientUnits="userSpaceOnUse"></linearGradient><linearGradient xlink:href="#d" id="X" x1="-1850.015" x2="-1886.557" y1="5003.205" y2="5024.724" gradientTransform="matrix(-.85 .527 .283 .457 -2886.338 -1097.648)" gradientUnits="userSpaceOnUse"></linearGradient><linearGradient xlink:href="#c" id="Y" x1="2256.915" x2="2309.884" y1="-3649.349" y2="-3609.93" gradientTransform="matrix(.425 .905 -.487 .229 -2568.943 -1003.475)" gradientUnits="userSpaceOnUse"></linearGradient><linearGradient xlink:href="#d" id="Z" x1="2289.414" x2="2252.872" y1="-3640.615" y2="-3619.096" gradientTransform="matrix(.425 .905 -.487 .229 -2568.943 -1003.475)" gradientUnits="userSpaceOnUse"></linearGradient><linearGradient xlink:href="#c" id="aa" x1="-991.13" x2="-928.228" y1="3551.139" y2="3597.95" gradientTransform="matrix(-.669 .744 .4 .36 -1959.592 -298.014)" gradientUnits="userSpaceOnUse"></linearGradient><linearGradient xlink:href="#d" id="ab" x1="1214.234" x2="1192.816" y1="267.351" y2="271.131" gradientTransform="matrix(-1 0 0 1 1331.704 0)" gradientUnits="userSpaceOnUse"></linearGradient><linearGradient xlink:href="#d" id="ac" x1="-952.537" x2="-995.932" y1="3561.511" y2="3587.066" gradientTransform="matrix(-.669 .744 .4 .36 -1959.592 -298.014)" gradientUnits="userSpaceOnUse"></linearGradient><linearGradient xlink:href="#c" id="ad" x1="1593.82" x2="1656.722" y1="-1846.669" y2="-1799.857" gradientTransform="matrix(.661 .75 -.404 .356 -1628.524 -296.408)" gradientUnits="userSpaceOnUse"></linearGradient><linearGradient xlink:href="#d" id="ae" x1="1632.413" x2="1589.018" y1="-1836.296" y2="-1810.742" gradientTransform="matrix(.661 .75 -.404 .356 -1628.524 -296.408)" gradientUnits="userSpaceOnUse"></linearGradient><linearGradient xlink:href="#c" id="af" x1="718.385" x2="781.288" y1="-542.1" y2="-495.289" gradientTransform="matrix(.84 .543 -.292 .452 -571.948 133.964)" gradientUnits="userSpaceOnUse"></linearGradient><linearGradient xlink:href="#d" id="ag" x1="756.979" x2="713.583" y1="-531.727" y2="-506.173" gradientTransform="matrix(.84 .543 -.292 .452 -571.948 133.964)" gradientUnits="userSpaceOnUse"></linearGradient><linearGradient xlink:href="#c" id="ah" x1="-144.091" x2="-73.51" y1="434.182" y2="486.708" gradientTransform="matrix(-.27 .963 .518 .145 -131.002 370.848)" gradientUnits="userSpaceOnUse"></linearGradient><linearGradient xlink:href="#d" id="ai" x1="1191.327" x2="1166.129" y1="324.587" y2="324.587" gradientTransform="matrix(-1 0 0 1 1331.704 0)" gradientUnits="userSpaceOnUse"></linearGradient><linearGradient xlink:href="#d" id="aj" x1="-100.787" x2="-149.479" y1="445.821" y2="474.495" gradientTransform="matrix(-.27 .963 .518 .145 -131.002 370.848)" gradientUnits="userSpaceOnUse"></linearGradient><linearGradient xlink:href="#c" id="ak" x1="1098.542" x2="1176.964" y1="240.599" y2="319.02" gradientTransform="matrix(-1 0 0 1 1331.704 0)" gradientUnits="userSpaceOnUse"></linearGradient><path fill="url(#e)" d="M283.824 12.372c21.741-22.805 60.101-12.527 67.527 18.094 5.36 22.1 28.106 35.233 49.925 28.824 30.231-8.879 58.312 19.202 49.433 49.433-6.408 21.819 6.724 44.566 28.824 49.925 30.62 7.426 40.899 45.786 18.094 67.527-16.459 15.692-16.459 41.957 0 57.649 22.805 21.741 12.527 60.101-18.094 67.527-22.1 5.36-35.233 28.106-28.824 49.925 8.879 30.231-19.202 58.312-49.433 49.433-21.819-6.408-44.566 6.724-49.925 28.824-7.426 30.62-45.786 40.899-67.527 18.094-15.692-16.459-41.957-16.459-57.649 0-21.741 22.805-60.101 12.527-67.527-18.094-5.36-22.1-28.106-35.233-49.925-28.824-30.231 8.879-58.312-19.202-49.433-49.433 6.408-21.819-6.724-44.566-28.824-49.925-30.62-7.426-40.899-45.786-18.094-67.527 16.459-15.692 16.459-41.957 0-57.649-22.805-21.741-12.527-60.101 18.094-67.527 22.1-5.36 35.233-28.106 28.824-49.925-8.879-30.231 19.202-58.312 49.433-49.433 21.819 6.408 44.566-6.724 49.925-28.824 7.426-30.62 45.786-40.899 67.527-18.094 15.692 16.459 41.958 16.459 57.649 0z" opacity="1" data-original="url(#e)"></path><circle cx="255" cy="255" r="210.253" fill="url(#f)" opacity="1" data-original="url(#f)"></circle><circle cx="255" cy="255" r="186.504" fill="url(#g)" opacity="1" data-original="url(#g)"></circle><path fill="url(#h)" d="M24.571 252.04c.848 11.452-3.195 23.199-12.199 31.784-22.805 21.741-12.526 60.101 18.094 67.527 22.1 5.36 35.233 28.106 28.824 49.925-8.879 30.231 19.202 58.312 49.433 49.433 21.819-6.408 44.566 6.724 49.925 28.824 7.426 30.62 45.786 40.899 67.527 18.094 15.692-16.459 41.957-16.459 57.649 0 21.741 22.805 60.101 12.526 67.527-18.094 5.36-22.1 28.106-35.233 49.925-28.824 30.231 8.879 58.312-19.202 49.433-49.433-6.408-21.819 6.724-44.566 28.824-49.925 30.62-7.426 40.899-45.786 18.094-67.527-9.005-8.585-13.047-20.333-12.199-31.784z" opacity="1" data-original="url(#h)"></path><path fill="url(#i)" d="M497.628 283.824c-12.545-11.96-15.517-30.057-8.94-44.938l-99.716-99.716c-.541-1.864-4.504-3.199-6.063-2.043-6.741 5-12.556 12.557-16.255 21.829L345.8 138.244c-5.163-6.296-11.428-10.972-17.952-13.692-1.757-.732-5.312 1.47-5.439 3.369-.605 9.068 1.861 19.194 7.596 28.452 3.169 5.116 15.34 17.458 17.579 19.372a7.809 7.809 0 0 0 1.222 3.665 111.58 111.58 0 0 1 1.737 2.807 55.847 55.847 0 0 0-12.872-4.41c-10.967-2.328-21.615-1.28-30.156 2.315-1.789.752-2.657 4.844-1.328 6.258l24.524 24.406c-5.826-.87-11.506-.831-16.761.064-2.196.374-4.237 4.719-3.122 6.648 2.954 5.108 7.048 9.946 12.093 14.177l39.5 39.813a113.834 113.834 0 0 1-1.119 3.675l-19.186-19.02c-11.464-10.107-24.81-15.993-37.359-17.442-.924-.107-5.007.399-5.749.709-.569.237-1.136.492-1.701.759a41.333 41.333 0 0 0-.039-4.568L189.591 127.92c-.127-1.899-3.682-4.102-5.439-3.369-8.389 3.497-16.357 10.215-22.092 19.472-3.684 5.948-5.998 12.25-7.035 18.403-1.076-1.049-22.971-23.102-25.934-25.3-1.559-1.156-5.522.18-6.063 2.043-2.583 8.899-2.392 19.598 1.189 30.221 3.156 9.362 8.443 17.174 14.747 22.675a128.51 128.51 0 0 0-5.392 16.343c-1.185-1.183-8.307-8.404-10.828-10.534-5.914-6.984-12.939-12.221-20.208-15.366-2.045-.884-6.125 1.645-6.242 3.87-.559 10.623 2.452 22.53 9.233 33.468 3.661 5.905 8.065 10.945 12.878 15.004l11.266 11.558c.22 4.899.707 9.73 1.463 14.473a78.016 78.016 0 0 0-5.017-4.952c-11.365-10.218-24.654-16.232-37.188-17.804-2.625-.329-6.436 3.911-5.831 6.486 2.892 12.297 10.282 24.873 21.647 35.09l26.177 26.317c-12.716-1.867-24.962-.743-35.402 2.884-2.804.975-4.53 7.134-2.64 9.423L260.099 485.62c8.727 1.12 17.154 5.115 23.726 12.007 21.741 22.805 60.101 12.526 67.527-18.094 5.36-22.1 28.106-35.233 49.925-28.824 30.231 8.879 58.312-19.202 49.433-49.433-6.408-21.819 6.724-44.566 28.824-49.925 30.621-7.426 40.899-45.785 18.094-67.527z" opacity="1" data-original="url(#i)"></path><path fill="url(#j)" d="M497.63 283.82c-12.55-11.96-15.52-30.05-8.94-44.93l-99.72-99.72c-.54-1.86-4.5-3.2-6.06-2.04-6.74 5-12.56 12.55-16.25 21.83l-20.86-20.72c-5.16-6.29-11.43-10.97-17.95-13.69-1.76-.73-5.31 1.47-5.44 3.37-.6 9.07 1.86 19.19 7.6 28.45 3.17 5.12 15.34 17.46 17.58 19.37a7.7 7.7 0 0 0 1.22 3.67c.59.92 1.17 1.86 1.74 2.81a55.868 55.868 0 0 0-12.88-4.41c-10.96-2.33-21.61-1.28-30.15 2.31-1.79.75-2.66 4.85-1.33 6.26l24.52 24.4c-5.82-.87-11.5-.83-16.76.07-2.2.37-4.24 4.72-3.12 6.65 2.95 5.1 7.05 9.94 12.09 14.17l39.5 39.82a91.47 91.47 0 0 1-1.12 3.67l-17.39-17.24v67.44c-21.98 22.08-51.88 36.25-85.03 37.83h-7.76c-32.448-1.548-61.784-15.163-83.62-36.439V332l169.62 169.62c6.75-5.19 11.95-12.68 14.23-22.09 4.44-18.3 20.8-30.45 38.68-30.45 3.72 0 7.5.53 11.25 1.63 3.86 1.14 7.69 1.67 11.41 1.67 25.39 0 45.76-24.73 38.02-51.1a39.92 39.92 0 0 1-1.63-11.25c0-17.88 12.15-34.24 30.45-38.68 19.26-4.67 30.47-21.57 30.47-38.88 0-10.22-3.91-20.58-12.37-28.65z" opacity="1" data-original="url(#j)"></path><path fill="url(#k)" d="m291.54 106.86-17.476-4.223a6.709 6.709 0 0 1-3.983-2.764l-10.074-14.892a6.637 6.637 0 0 0-5.006-2.923 6.639 6.639 0 0 0-5.006 2.923L239.92 99.874a6.716 6.716 0 0 1-3.983 2.764l-17.476 4.223c-4.74 1.145-6.716 6.804-3.719 10.651l11.05 14.183a6.711 6.711 0 0 1 1.397 4.643l-1.385 17.926c-.376 4.862 4.395 8.49 8.98 6.828l16.903-6.126a6.708 6.708 0 0 1 3.313-.316 6.708 6.708 0 0 1 3.313.316l16.903 6.126c4.585 1.662 9.356-1.966 8.98-6.828l-1.385-17.926a6.717 6.717 0 0 1 1.397-4.643l11.05-14.183c2.998-3.848 1.022-9.507-3.718-10.652z" opacity="1" data-original="url(#k)"></path><path fill="url(#l)" d="m266.667 176.805-32 24.333L251 217.471l-2.625 58.854 123.78 123.78c21.896-17.7 39.701-40.252 51.787-66.026z" opacity="1" data-original="url(#l)"></path><path fill="url(#m)" d="m246.615 199.443-4.161 2.583c-1.292.861-2.583 1.148-3.587 1.148-4.161 0-7.031-4.448-7.031-8.896 0-3.013 1.292-5.883 4.162-7.605l18.941-11.479c1.148-.718 2.583-1.004 4.161-1.004 4.592 0 9.901 2.726 9.901 7.031v91.262c0 4.592-5.596 6.888-11.192 6.888-5.597 0-11.193-2.296-11.193-6.888v-73.04z" opacity="1" data-original="url(#m)"></path><path fill="url(#n)" d="M222.166 400.756a8.14 8.14 0 0 0 0-16.28h-48.641a8.14 8.14 0 0 0 0 16.28z" opacity="1" data-original="url(#n)"></path><path fill="url(#o)" d="M336.475 384.476h-48.641a8.14 8.14 0 0 0 0 16.28h48.641a8.14 8.14 0 0 0 0-16.28z" opacity="1" data-original="url(#o)"></path><path fill="url(#p)" d="M262.828 400.756a8.14 8.14 0 0 0 0-16.28h-15.803a8.14 8.14 0 0 0 0 16.28z" opacity="1" data-original="url(#p)"></path><path fill="url(#q)" d="M329.006 155.371c5.735 9.258 13.703 15.975 22.092 19.472 1.757.732 5.312-1.47 5.439-3.369.605-9.068-1.861-19.194-7.596-28.452s-13.703-15.975-22.092-19.472c-1.757-.732-5.312 1.47-5.439 3.369-.605 9.069 1.861 19.195 7.596 28.452z" opacity="1" data-original="url(#q)"></path><path fill="url(#r)" d="m323.518 124.248 30.911 49.898c1.124-.696 2.045-1.722 2.108-2.671.605-9.068-1.861-19.194-7.596-28.452s-13.703-15.975-22.092-19.472c-.879-.367-2.207.001-3.331.697z" opacity="1" data-original="url(#r)"></path><path fill="url(#s)" d="M364.562 160.901c-3.581 10.624-3.772 21.322-1.189 30.221.541 1.864 4.504 3.199 6.063 2.043 7.443-5.52 13.767-14.151 17.347-24.775 3.581-10.624 3.772-21.322 1.189-30.221-.541-1.864-4.504-3.199-6.063-2.043-7.442 5.52-13.766 14.151-17.347 24.775z" opacity="1" data-original="url(#s)"></path><path fill="url(#t)" d="M364.562 160.901c-3.581 10.624-3.772 21.322-1.189 30.221.541 1.864 4.504 3.199 6.063 2.043 7.443-5.52 13.767-14.151 17.347-24.775 3.581-10.624 3.772-21.322 1.189-30.221-.541-1.864-4.504-3.199-6.063-2.043-7.442 5.52-13.766 14.151-17.347 24.775z" opacity="1" data-original="url(#t)"></path><path fill="url(#u)" d="m385.322 136.015-19.3 57.261c1.253.422 2.634.467 3.413-.111 7.443-5.52 13.767-14.151 17.347-24.775 3.581-10.624 3.772-21.322 1.189-30.221-.269-.931-1.395-1.731-2.649-2.154z" opacity="1" data-original="url(#u)"></path><path fill="url(#v)" d="M336.672 176.806c10.967 2.328 20.271 7.611 26.615 14.365 1.329 1.414.46 5.505-1.328 6.258-8.541 3.595-19.189 4.643-30.156 2.315s-20.271-7.611-26.615-14.365c-1.329-1.414-.46-5.505 1.328-6.258 8.541-3.595 19.189-4.643 30.156-2.315z" opacity="1" data-original="url(#v)"></path><path fill="url(#w)" d="m304.683 182.002 59.109 12.546c-.275 1.294-.939 2.505-1.833 2.881-8.541 3.595-19.189 4.643-30.156 2.315s-20.271-7.611-26.615-14.365c-.664-.707-.779-2.084-.505-3.377z" opacity="1" data-original="url(#w)"></path><path fill="url(#x)" d="M382.595 204.664c-6.781 10.938-9.792 22.846-9.233 33.468.117 2.225 4.197 4.754 6.242 3.87 9.763-4.224 19.088-12.217 25.869-23.155s9.792-22.846 9.233-33.468c-.117-2.225-4.197-4.754-6.242-3.87-9.763 4.223-19.089 12.217-25.869 23.155z" opacity="1" data-original="url(#x)"></path><path fill="url(#y)" d="M382.595 204.664c-6.781 10.938-9.792 22.846-9.233 33.468.117 2.225 4.197 4.754 6.242 3.87 9.763-4.224 19.088-12.217 25.869-23.155s9.792-22.846 9.233-33.468c-.117-2.225-4.197-4.754-6.242-3.87-9.763 4.223-19.089 12.217-25.869 23.155z" opacity="1" data-original="url(#y)"></path><path fill="url(#z)" d="m412.307 182.278-36.547 58.955c1.29.8 2.822 1.211 3.844.769 9.763-4.224 19.088-12.217 25.869-23.155s9.792-22.846 9.233-33.468c-.059-1.113-1.108-2.302-2.399-3.101z" opacity="1" data-original="url(#z)"></path><path fill="url(#A)" d="M347.262 215.147c11.649 5.47 20.667 13.808 25.992 23.017 1.115 1.928-.925 6.274-3.121 6.648-10.486 1.784-22.663.171-34.312-5.299s-20.667-13.808-25.992-23.017c-1.115-1.928.925-6.274 3.121-6.648 10.486-1.784 22.662-.171 34.312 5.299z" opacity="1" data-original="url(#A)"></path><path fill="url(#B)" d="m310.147 212.589 62.787 29.482c-.645 1.374-1.704 2.554-2.802 2.741-10.486 1.784-22.663.171-34.312-5.299s-20.667-13.808-25.992-23.017c-.557-.964-.326-2.533.319-3.907z" opacity="1" data-original="url(#B)"></path><path fill="url(#C)" d="M384.884 254.929c-11.365 10.218-18.755 22.794-21.647 35.09-.606 2.575 3.206 6.815 5.831 6.486 12.534-1.572 25.822-7.586 37.188-17.804 11.365-10.218 18.755-22.794 21.647-35.09.606-2.575-3.206-6.815-5.831-6.486-12.535 1.571-25.823 7.586-37.188 17.804z" opacity="1" data-original="url(#C)"></path><path fill="url(#D)" d="M384.884 254.929c-11.365 10.218-18.755 22.794-21.647 35.09-.606 2.575 3.206 6.815 5.831 6.486 12.534-1.572 25.822-7.586 37.188-17.804 11.365-10.218 18.755-22.794 21.647-35.09.606-2.575-3.206-6.815-5.831-6.486-12.535 1.571-25.823 7.586-37.188 17.804z" opacity="1" data-original="url(#D)"></path><path fill="url(#E)" d="m426.198 239.278-61.257 55.072c1.205 1.341 2.814 2.318 4.127 2.154 12.534-1.572 25.822-7.586 37.188-17.804s18.755-22.793 21.647-35.09c.302-1.287-.499-2.991-1.705-4.332z" opacity="1" data-original="url(#E)"></path><path fill="url(#F)" d="M341.117 255.141c11.464 10.107 18.975 22.61 21.986 34.878.631 2.569-3.14 6.846-5.768 6.542-12.549-1.45-25.895-7.335-37.359-17.442s-18.975-22.61-21.986-34.878c-.631-2.569 3.14-6.846 5.768-6.542 12.548 1.45 25.895 7.335 37.359 17.442z" opacity="1" data-original="url(#F)"></path><path fill="url(#G)" d="m299.652 239.892 61.789 54.475c-1.192 1.352-2.792 2.346-4.106 2.194-12.549-1.45-25.895-7.335-37.359-17.442s-18.975-22.61-21.986-34.878c-.315-1.285.47-2.996 1.662-4.349z" opacity="1" data-original="url(#G)"></path><path fill="url(#H)" d="M318.458 291.843c8.295 12.836 12.135 26.908 11.708 39.533-.09 2.644-4.878 5.738-7.325 4.733-11.686-4.797-22.937-14.081-31.231-26.917s-12.135-26.908-11.708-39.533c.09-2.644 4.878-5.738 7.325-4.733 11.685 4.797 22.936 14.08 31.231 26.917z" opacity="1" data-original="url(#H)"></path><path fill="url(#I)" d="m282.68 265.924 44.707 69.186c-1.514.978-3.323 1.501-4.547.999-11.686-4.797-22.937-14.081-31.231-26.917-8.295-12.836-12.135-26.908-11.708-39.533.045-1.322 1.265-2.756 2.779-3.735z" opacity="1" data-original="url(#I)"></path><path fill="url(#J)" d="M369.222 307.317c-16.513 4.626-30.2 13.6-39.224 24.531-1.89 2.289-.164 8.449 2.64 9.423 13.389 4.652 29.746 5.211 46.259.585s30.2-13.6 39.224-24.531c1.89-2.289.164-8.449-2.64-9.423-13.389-4.652-29.746-5.211-46.259-.585z" opacity="1" data-original="url(#J)"></path><path fill="url(#K)" d="M369.222 307.317c-16.513 4.626-30.2 13.6-39.224 24.531-1.89 2.289-.164 8.449 2.64 9.423 13.389 4.652 29.746 5.211 46.259.585s30.2-13.6 39.224-24.531c1.89-2.289.164-8.449-2.64-9.423-13.389-4.652-29.746-5.211-46.259-.585z" opacity="1" data-original="url(#K)"></path><path fill="url(#L)" d="m418.561 312.121-89.003 24.932c.546 1.948 1.678 3.732 3.08 4.219 13.389 4.652 29.746 5.211 46.259.585s30.2-13.6 39.224-24.531c.944-1.145.985-3.258.44-5.205z" opacity="1" data-original="url(#L)"></path><path fill="url(#M)" d="M252.662 368.345a7.874 7.874 0 0 1 0-15.748c62.347 0 113.07-50.723 113.07-113.07 0-21.77-6.198-42.904-17.924-61.118a7.874 7.874 0 0 1 2.359-10.883 7.874 7.874 0 0 1 10.884 2.359c13.365 20.761 20.43 44.843 20.43 69.643-.001 71.029-57.788 128.817-128.819 128.817z" opacity="1" data-original="url(#M)"></path><path fill="url(#N)" d="M343.909 306.217c-20.591 28.097-53.822 46.379-91.247 46.379a7.874 7.874 0 0 0 0 15.748c35.619 0 67.905-14.533 91.247-37.979z" opacity="1" data-original="url(#N)"></path><path fill="url(#O)" d="M180.994 155.371c-5.735 9.258-13.703 15.975-22.092 19.472-1.757.732-5.312-1.47-5.439-3.369-.605-9.068 1.861-19.194 7.596-28.452s13.703-15.975 22.092-19.472c1.757-.732 5.312 1.47 5.439 3.369.605 9.069-1.861 19.195-7.596 28.452z" opacity="1" data-original="url(#O)"></path><path fill="url(#P)" d="m186.482 124.248-30.911 49.898c-1.124-.696-2.045-1.722-2.108-2.671-.605-9.068 1.861-19.194 7.596-28.452s13.703-15.975 22.092-19.472c.879-.367 2.207.001 3.331.697z" opacity="1" data-original="url(#P)"></path><path fill="url(#Q)" d="M145.438 160.901c3.581 10.624 3.772 21.322 1.189 30.221-.541 1.864-4.504 3.199-6.063 2.043-7.443-5.52-13.767-14.151-17.347-24.775-3.581-10.624-3.772-21.322-1.189-30.221.541-1.864 4.504-3.199 6.063-2.043 7.442 5.52 13.766 14.151 17.347 24.775z" opacity="1" data-original="url(#Q)"></path><path fill="url(#R)" d="M145.438 160.901c3.581 10.624 3.772 21.322 1.189 30.221-.541 1.864-4.504 3.199-6.063 2.043-7.443-5.52-13.767-14.151-17.347-24.775-3.581-10.624-3.772-21.322-1.189-30.221.541-1.864 4.504-3.199 6.063-2.043 7.442 5.52 13.766 14.151 17.347 24.775z" opacity="1" data-original="url(#R)"></path><path fill="url(#S)" d="m124.678 136.015 19.3 57.261c-1.253.422-2.634.467-3.413-.111-7.443-5.52-13.767-14.151-17.347-24.775-3.581-10.624-3.772-21.322-1.189-30.221.269-.931 1.395-1.731 2.649-2.154z" opacity="1" data-original="url(#S)"></path><path fill="url(#T)" d="M173.328 176.806c-10.967 2.328-20.271 7.611-26.615 14.365-1.329 1.414-.46 5.505 1.328 6.258 8.541 3.595 19.189 4.643 30.156 2.315s20.271-7.611 26.615-14.365c1.329-1.414.46-5.505-1.328-6.258-8.541-3.595-19.189-4.643-30.156-2.315z" opacity="1" data-original="url(#T)"></path><path fill="url(#U)" d="m205.317 182.002-59.109 12.546c.275 1.294.939 2.505 1.833 2.881 8.541 3.595 19.189 4.643 30.156 2.315s20.271-7.611 26.615-14.365c.664-.707.779-2.084.505-3.377z" opacity="1" data-original="url(#U)"></path><path fill="url(#V)" d="M127.405 204.664c6.781 10.938 9.792 22.846 9.233 33.468-.117 2.225-4.197 4.754-6.242 3.87-9.763-4.224-19.088-12.217-25.869-23.155s-9.792-22.846-9.233-33.468c.117-2.225 4.197-4.754 6.242-3.87 9.763 4.223 19.089 12.217 25.869 23.155z" opacity="1" data-original="url(#V)"></path><path fill="url(#W)" d="M127.405 204.664c6.781 10.938 9.792 22.846 9.233 33.468-.117 2.225-4.197 4.754-6.242 3.87-9.763-4.224-19.088-12.217-25.869-23.155s-9.792-22.846-9.233-33.468c.117-2.225 4.197-4.754 6.242-3.87 9.763 4.223 19.089 12.217 25.869 23.155z" opacity="1" data-original="url(#W)"></path><path fill="url(#X)" d="m97.693 182.278 36.547 58.955c-1.29.8-2.821 1.211-3.844.769-9.763-4.224-19.088-12.217-25.869-23.155s-9.792-22.846-9.233-33.468c.059-1.113 1.108-2.302 2.399-3.101z" opacity="1" data-original="url(#X)"></path><path fill="url(#Y)" d="M162.738 215.147c-11.649 5.47-20.667 13.808-25.992 23.017-1.115 1.928.925 6.274 3.121 6.648 10.486 1.784 22.663.171 34.312-5.299s20.667-13.808 25.992-23.017c1.115-1.928-.925-6.274-3.121-6.648-10.486-1.784-22.662-.171-34.312 5.299z" opacity="1" data-original="url(#Y)"></path><path fill="url(#Z)" d="m199.852 212.589-62.787 29.482c.645 1.374 1.704 2.554 2.802 2.741 10.486 1.784 22.663.171 34.312-5.299s20.667-13.808 25.992-23.017c.558-.964.327-2.533-.319-3.907z" opacity="1" data-original="url(#Z)"></path><path fill="url(#aa)" d="M125.116 254.929c11.365 10.218 18.755 22.794 21.647 35.09.606 2.575-3.206 6.815-5.831 6.486-12.534-1.572-25.822-7.586-37.188-17.804-11.365-10.218-18.755-22.794-21.647-35.09-.606-2.575 3.206-6.815 5.831-6.486 12.535 1.571 25.823 7.586 37.188 17.804z" opacity="1" data-original="url(#aa)"></path><path fill="url(#ab)" d="M125.116 254.929c11.365 10.218 18.755 22.794 21.647 35.09.606 2.575-3.206 6.815-5.831 6.486-12.534-1.572-25.822-7.586-37.188-17.804-11.365-10.218-18.755-22.794-21.647-35.09-.606-2.575 3.206-6.815 5.831-6.486 12.535 1.571 25.823 7.586 37.188 17.804z" opacity="1" data-original="url(#ab)"></path><path fill="url(#ac)" d="m83.802 239.278 61.257 55.072c-1.205 1.341-2.814 2.318-4.127 2.154-12.534-1.572-25.822-7.586-37.188-17.804s-18.755-22.793-21.647-35.09c-.302-1.287.499-2.991 1.705-4.332z" opacity="1" data-original="url(#ac)"></path><path fill="url(#ad)" d="M168.883 255.141c-11.464 10.107-18.975 22.61-21.986 34.878-.631 2.569 3.14 6.846 5.768 6.542 12.549-1.45 25.895-7.335 37.359-17.442s18.975-22.61 21.986-34.878c.631-2.569-3.14-6.846-5.768-6.542-12.549 1.45-25.895 7.335-37.359 17.442z" opacity="1" data-original="url(#ad)"></path><path fill="url(#ae)" d="m210.348 239.892-61.789 54.475c1.192 1.352 2.792 2.346 4.106 2.194 12.549-1.45 25.895-7.335 37.359-17.442s18.975-22.61 21.986-34.878c.315-1.285-.47-2.996-1.662-4.349z" opacity="1" data-original="url(#ae)"></path><path fill="url(#af)" d="M191.542 291.843c-8.295 12.836-12.135 26.908-11.708 39.533.09 2.644 4.878 5.738 7.325 4.733 11.686-4.797 22.937-14.081 31.231-26.917 8.295-12.836 12.135-26.908 11.708-39.533-.09-2.644-4.878-5.738-7.325-4.733-11.685 4.797-22.936 14.08-31.231 26.917z" opacity="1" data-original="url(#af)"></path><path fill="url(#ag)" d="m227.32 265.924-44.707 69.186c1.514.978 3.323 1.501 4.547.999 11.686-4.797 22.937-14.081 31.231-26.917 8.295-12.836 12.135-26.908 11.708-39.533-.045-1.322-1.265-2.756-2.779-3.735z" opacity="1" data-original="url(#ag)"></path><path fill="url(#ah)" d="M140.778 307.317c16.513 4.626 30.2 13.6 39.224 24.531 1.89 2.289.164 8.449-2.64 9.423-13.389 4.652-29.746 5.211-46.259.585s-30.2-13.6-39.224-24.531c-1.89-2.289-.164-8.449 2.64-9.423 13.389-4.652 29.746-5.211 46.259-.585z" opacity="1" data-original="url(#ah)"></path><path fill="url(#ai)" d="M140.778 307.317c16.513 4.626 30.2 13.6 39.224 24.531 1.89 2.289.164 8.449-2.64 9.423-13.389 4.652-29.746 5.211-46.259.585s-30.2-13.6-39.224-24.531c-1.89-2.289-.164-8.449 2.64-9.423 13.389-4.652 29.746-5.211 46.259-.585z" opacity="1" data-original="url(#ai)"></path><path fill="url(#aj)" d="m91.439 312.121 89.003 24.932c-.546 1.948-1.678 3.732-3.08 4.219-13.389 4.652-29.746 5.211-46.259.585s-30.2-13.6-39.224-24.531c-.944-1.145-.985-3.258-.44-5.205z" opacity="1" data-original="url(#aj)"></path><path fill="url(#ak)" d="M257.338 368.345a7.874 7.874 0 0 0 0-15.748c-62.347 0-113.07-50.723-113.07-113.07 0-21.77 6.198-42.904 17.924-61.118a7.874 7.874 0 0 0-2.359-10.883 7.874 7.874 0 0 0-10.884 2.359c-13.365 20.761-20.43 44.843-20.43 69.643.001 71.029 57.788 128.817 128.819 128.817z" opacity="1" data-original="url(#ak)"></path></g></svg>